<svg width="51" height="53" viewBox="0 0 51 53" fill="none" xmlns="http://www.w3.org/2000/svg">
<g clip-path="url(#clip0_8_109)">
<path d="M1.85001 4.57L0.850013 28.19C0.530013 35.97 -0.0699866 43.79 1.34003e-05 51.58C0.0100134 52.83 3.88001 52.01 3.99001 50.8C4.71001 43.05 4.77001 35.2 5.09001 27.42L6.07001 4.05C6.14001 2.32 1.89001 3.17 1.84001 4.58L1.85001 4.57Z" fill="black"/>
<path d="M2.49995 6.04C15.8699 5.35 29.2199 4.03 42.4899 2.29L41.1199 0.819997C35.6799 5.24 30.0299 9.36 24.0999 13.1C23.2299 13.65 22.9599 14.51 24.1199 14.84C31.6599 16.97 39.1999 19.11 46.7299 21.26L48.2999 18.96C33.0799 21.61 17.8499 24.4 2.77995 27.81C2.20995 27.94 1.06995 28.43 1.09995 29.16C1.12995 29.89 2.24995 29.95 2.76995 29.85C17.7399 26.92 32.6899 23.9 47.7199 21.28C48.4499 21.15 49.5499 20.88 49.9599 20.16C50.3199 19.53 49.8999 19.15 49.2899 18.98C41.7399 16.86 34.1899 14.73 26.6499 12.59L26.6699 14.33C32.8299 10.41 38.7799 6.15 44.4099 1.5C45.6499 0.479997 43.9299 -0.100003 43.0399 0.0299973C29.9299 1.84 16.7399 3.04 3.51995 3.86C2.83995 3.9 1.63995 4.32 1.37995 5.04C1.11995 5.76 1.87995 6.07 2.49995 6.04Z" fill="black"/>
</g>
<defs>
<clipPath id="clip0_8_109">
<rect width="50.27" height="52.2" fill="white"/>
</clipPath>
</defs>
</svg>
